<svg width="165" height="27" viewBox="0 0 165 27" fill="none" xmlns="http://www.w3.org/2000/svg">
<path d="M37.4045 6.9L34.9085 11.788L32.4905 6.9H30.2415L33.8295 13.582L33.7515 13.686C33.4005 14.232 32.9975 14.466 32.4775 14.466C32.2045 14.466 31.9055 14.401 31.5675 14.297L31.0605 15.896C31.5675 16.104 32.0615 16.208 32.5425 16.208C33.7645 16.208 34.8435 15.506 35.5975 14.102L39.4715 6.9H37.4045ZM45.7098 11.255C46.5158 10.904 47.0228 10.202 47.0228 9.318C47.0228 7.667 45.2028 6.705 43.0968 6.705C42.0568 6.705 40.9648 6.939 39.9768 7.446L40.6138 9.084C41.3938 8.642 42.2908 8.434 43.0578 8.434C44.0848 8.434 44.8908 8.824 44.8908 9.565C44.8908 10.163 44.3968 10.54 43.5388 10.54H41.4718V12.126H43.6948C44.6438 12.126 45.2678 12.464 45.2678 13.153C45.2678 13.998 44.2928 14.44 43.0968 14.44C42.2128 14.44 41.1988 14.206 40.3668 13.699L39.7168 15.207C40.8478 15.857 42.1348 16.156 43.3438 16.156C45.5278 16.156 47.3998 15.168 47.3998 13.452C47.3998 12.425 46.7628 11.619 45.7098 11.255ZM55.307 6.9V10.488H51.173V6.9H49.067V16H51.173V12.269H55.307V16H57.413V6.9H55.307ZM66.661 16H68.871L64.802 6.9H62.722L58.666 16H60.824L61.63 14.05H65.855L66.661 16ZM62.306 12.451L63.749 8.967L65.192 12.451H62.306ZM76.5757 6.9H68.6847V8.616H71.5837V16H73.6637V8.616H76.5757V6.9ZM82.3051 9.89H79.9911V6.9H77.8981V16H82.0061C84.3461 16 85.7501 14.921 85.7501 12.828C85.7501 10.865 84.5021 9.89 82.3051 9.89ZM81.8891 14.44H79.9911V11.45H81.8891C82.9811 11.45 83.6311 11.866 83.6311 12.867C83.6311 13.894 82.9681 14.44 81.8891 14.44ZM90.9489 16H95.2649C97.6049 16 98.9439 14.947 98.9439 13.127C98.9439 11.385 97.7609 10.449 95.5639 10.449H93.0419V8.577H98.2939V6.9H90.9489V16ZM93.0419 14.44V11.996H95.1479C96.2529 11.996 96.8119 12.386 96.8119 13.192C96.8119 14.011 96.2269 14.44 95.1479 14.44H93.0419ZM104.889 16.156C107.749 16.156 109.868 14.167 109.868 11.45C109.868 8.733 107.749 6.744 104.889 6.744C102.016 6.744 99.9095 8.746 99.9095 11.45C99.9095 14.154 102.016 16.156 104.889 16.156ZM104.889 14.362C103.264 14.362 102.042 13.179 102.042 11.45C102.042 9.721 103.264 8.538 104.889 8.538C106.514 8.538 107.736 9.721 107.736 11.45C107.736 13.179 106.514 14.362 104.889 14.362ZM112.354 6.9L112.224 10.592C112.133 12.919 111.86 14.271 110.794 14.271C110.664 14.271 110.547 14.258 110.417 14.219L110.287 16C110.677 16.091 111.015 16.143 111.327 16.143C113.459 16.143 113.966 14.089 114.083 10.514L114.148 8.616H117.268V16H119.348V6.9H112.354ZM126.028 9.89H123.714V6.9H121.621V16H125.729C128.069 16 129.473 14.921 129.473 12.828C129.473 10.865 128.225 9.89 126.028 9.89ZM125.612 14.44H123.714V11.45H125.612C126.704 11.45 127.354 11.866 127.354 12.867C127.354 13.894 126.691 14.44 125.612 14.44ZM140.909 6.9V14.284H138.049V6.9H135.956V14.284H133.083V6.9H130.99V16H143.002V6.9H140.909ZM147.352 14.31V12.204H151.577V10.566H147.352V8.59H152.136V6.9H145.259V16H152.305V14.31H147.352Z" fill="white"/>
<circle cx="11" cy="11" r="10" stroke="white" stroke-width="2"/>
<path d="M10.9949 8.031C11.7489 8.031 12.2559 7.537 12.2559 6.861C12.2559 6.237 11.7489 5.769 10.9949 5.769C10.2409 5.769 9.73392 6.263 9.73392 6.9C9.73392 7.537 10.2409 8.031 10.9949 8.031ZM9.98092 16H12.0089V9.006H9.98092V16Z" fill="white"/>
</svg>
